<svg width="545" height="251" viewBox="0 0 545 251" fill="none" xmlns="http://www.w3.org/2000/svg">
<rect x="156.225" y="106.828" width="69" height="16.025" transform="rotate(45.3318 156.225 106.828)" fill="#FB292B" stroke="black" stroke-width="4"/>
<path d="M233 250C241.602 248.912 251 237 251 237L221 224C212.218 224.471 209.28 226.575 208 234C208 234 221.5 251.455 233 250Z" fill="#112935"/>
<path d="M318 250C309.398 248.912 300 237 300 237L330 224C338.782 224.471 341.72 226.575 343 234C343 234 329.5 251.455 318 250Z" fill="#112935"/>
<path d="M364.5 139C364.5 195.01 324.177 239.5 275.5 239.5C226.823 239.5 186.5 195.01 186.5 139C186.5 82.9904 226.823 38.5 275.5 38.5C324.177 38.5 364.5 82.9904 364.5 139Z" fill="#FFD39E" stroke="black" stroke-width="9"/>
<path d="M360.64 148.375C358.654 172.78 348.564 195.413 332.417 211.68C316.269 227.947 295.275 236.629 273.695 235.964C252.114 235.3 231.565 225.338 216.219 208.1C200.872 190.863 191.878 167.642 191.061 143.151L276 139.5L360.64 148.375Z" fill="#F3E7DB"/>
<path d="M276 132L258.679 99.75H293.321L276 132Z" fill="#112935"/>
<circle cx="307.5" cy="89.5" r="6.5" fill="#112935"/>
<circle cx="243.5" cy="89.5" r="6.5" fill="#112935"/>
<ellipse cx="235" cy="110" rx="8" ry="6" fill="#FE9099"/>
<ellipse cx="316" cy="110" rx="8" ry="6" fill="#FE9099"/>
<path d="M360.5 145C301.5 146.5 283.167 144.833 280.5 145L190.5 140.5" stroke="black" stroke-width="9"/>
<path d="M260.124 147.997C251.562 181.207 240.291 192.557 212.41 204.068C197.788 182.418 192.35 169.624 189 145.293L260.124 147.997Z" fill="#FFD39E" stroke="black" stroke-width="2"/>
<path d="M291.829 148.98C285.57 159.461 326.907 216.01 336.317 207.643C345.727 199.275 356.95 175.654 362.993 150.277L291.829 148.98Z" fill="#FFD39E" stroke="black" stroke-width="2"/>
<rect x="134" y="105.588" width="23" height="81" transform="rotate(-16.6452 134 105.588)" fill="black"/>
<path d="M172 59.5C172 88.8439 152.374 111 130 111C107.626 111 88 88.8439 88 59.5C88 30.1561 107.626 8 130 8C152.374 8 172 30.1561 172 59.5Z" stroke="black" stroke-width="10"/>
<line x1="2" y1="248" x2="543" y2="248" stroke="black" stroke-width="4" stroke-linecap="round"/>
<path d="M301.769 37.2497L299.55 41.0454L303.894 41.7274L333.494 46.3749L339.104 47.2557L336.669 42.1252L322.191 11.6109L319.757 6.4803L316.891 11.3828L301.769 37.2497Z" fill="#FD292B" stroke="black" stroke-width="6"/>
<path d="M352.976 69.7238L350.492 73.3519L348.019 69.7164L331.169 44.941L327.975 40.2454L333.654 40.2539L367.429 40.3046L373.108 40.3131L369.9 44.9992L352.976 69.7238Z" fill="#FA282B" stroke="black" stroke-width="6"/>
</svg>
