<svg width="2159" height="245" viewBox="0 0 2159 245" fill="none" xmlns="http://www.w3.org/2000/svg">
<path d="M103.532 77.4659C117.746 77.4659 126.089 81.3799 128.561 89.2079C129.797 93.122 130.415 98.2719 130.415 104.658C130.415 111.044 129.694 116.194 128.252 120.108C127.016 123.816 124.956 126.494 122.072 128.142C117.746 130.614 111.463 131.85 103.223 131.85L83.447 130.614V213.426C83.447 221.254 82.417 227.125 80.357 231.039C78.503 234.747 75.516 237.219 71.396 238.455C67.482 239.691 62.332 240.309 55.946 240.309C49.56 240.309 44.41 239.691 40.496 238.455C36.788 237.013 34.11 234.85 32.462 231.966C30.814 228.876 29.784 226.095 29.372 223.623C29.166 221.151 29.063 217.546 29.063 212.808V130.923H17.939C12.583 130.511 8.77201 129.275 6.50601 127.215C2.59201 123.301 0.63501 115.782 0.63501 104.658C0.63501 87.7659 6.71201 79.3199 18.866 79.3199H29.063V62.9429C29.063 47.0809 34.728 32.7639 46.058 19.9919C57.388 7.01394 73.765 0.52494 95.189 0.52494C99.927 0.52494 103.429 0.730938 105.695 1.14293C108.167 1.34894 110.948 2.27594 114.038 3.92393C119.6 6.60193 122.381 14.5329 122.381 27.7169C122.381 37.6049 120.63 44.7119 117.128 49.0379C114.244 52.3339 109.712 54.1879 103.532 54.5999C101.678 54.5999 98.794 54.5999 94.88 54.5999C87.258 54.5999 83.447 57.1749 83.447 62.3249V79.3199L103.532 77.4659ZM148.646 104.349C148.646 99.611 148.749 96.1089 148.955 93.8429C149.367 91.3709 150.294 88.59 151.736 85.5C154.62 80.1439 162.654 77.4659 175.838 77.4659C185.726 77.4659 192.73 79.2169 196.85 82.7189C200.352 85.6029 202.206 90.0319 202.412 96.006C202.618 98.0659 202.721 101.053 202.721 104.967V213.117C202.721 217.855 202.515 221.46 202.103 223.932C201.897 226.198 200.97 228.876 199.322 231.966C196.644 237.322 188.713 240 175.529 240C162.551 240 154.62 237.219 151.736 231.657C150.294 228.567 149.367 225.889 148.955 223.623C148.749 221.357 148.646 217.752 148.646 212.808V104.349ZM199.322 47.1839C197.88 50.0679 195.202 52.1279 191.288 53.3639C187.374 54.5999 182.121 55.2179 175.529 55.2179C169.143 55.2179 163.993 54.5999 160.079 53.3639C156.165 52.1279 153.384 49.9649 151.736 46.875C150.294 43.7849 149.367 41.1069 148.955 38.8409C148.749 36.3689 148.646 32.7639 148.646 28.0259C148.646 23.2879 148.749 19.7859 148.955 17.5199C149.367 15.0479 150.294 12.3699 151.736 9.48594C154.62 3.92393 162.654 1.14293 175.838 1.14293C188.816 1.14293 196.644 3.92393 199.322 9.48594C200.97 12.5759 201.897 15.3569 202.103 17.8289C202.515 20.0949 202.721 23.5969 202.721 28.3349C202.721 33.0729 202.515 36.6779 202.103 39.1499C201.897 41.4159 200.97 44.0939 199.322 47.1839Z" fill="black"/>
<path d="M317.973 77.157C338.573 77.157 355.671 85.088 369.267 100.95C383.069 116.606 389.97 135.764 389.97 158.424V212.808C389.97 217.546 389.764 221.151 389.352 223.623C389.146 225.889 388.322 228.464 386.88 231.348C383.996 236.91 375.962 239.691 362.778 239.691C348.152 239.691 339.706 235.88 337.44 228.258C336.204 224.756 335.586 219.503 335.586 212.499V158.115C335.586 149.669 333.114 143.077 328.17 138.339C323.432 133.601 316.943 131.232 308.703 131.232C300.669 131.232 294.077 133.704 288.927 138.648C283.983 143.592 281.511 150.081 281.511 158.115V212.808C281.511 217.546 281.305 221.151 280.893 223.623C280.687 225.889 279.76 228.464 278.112 231.348C275.434 236.91 267.503 239.691 254.319 239.691C241.341 239.691 233.41 236.91 230.526 231.348C229.084 228.258 228.157 225.58 227.745 223.314C227.539 220.842 227.436 217.237 227.436 212.499V103.113C227.436 98.5809 227.539 95.182 227.745 92.916C228.157 90.4439 229.187 87.7659 230.835 84.8819C233.719 79.7319 241.65 77.157 254.628 77.157C267.194 77.157 274.919 79.5259 277.803 84.2639C279.863 87.7659 280.893 91.9889 280.893 96.9329C281.717 95.4909 283.571 93.4309 286.455 90.7529C289.339 88.0749 292.12 85.9119 294.798 84.2639C301.802 79.5259 309.527 77.157 317.973 77.157Z" fill="black"/>
<path d="M465.813 158.733C465.813 167.385 468.697 174.183 474.465 179.127C480.233 183.865 486.31 186.234 492.696 186.234C499.288 186.234 505.365 184.38 510.927 180.672C516.695 176.758 521.33 174.801 524.832 174.801C531.012 174.801 538.531 180.26 547.389 191.178C552.127 197.152 554.496 202.508 554.496 207.246C554.496 215.074 548.831 222.387 537.501 229.185C525.759 237.425 511.339 241.545 494.241 241.545C475.083 241.545 456.646 234.644 438.93 220.842C430.484 214.25 423.583 205.495 418.227 194.577C412.871 183.453 410.193 171.299 410.193 158.115C410.193 144.725 412.871 132.674 418.227 121.962C423.583 111.044 430.484 102.289 438.93 95.6969C456.028 82.1009 474.259 75.3029 493.623 75.3029C501.451 75.3029 509.073 76.4359 516.489 78.702C523.905 80.7619 529.364 82.8219 532.866 84.8819L537.81 87.972C541.518 90.444 544.402 92.4009 546.462 93.8429C551.818 97.9629 554.496 102.701 554.496 108.057C554.496 113.207 552.333 119.078 548.007 125.67C540.591 137 533.484 142.665 526.686 142.665C522.772 142.665 517.21 140.399 510 135.867C506.292 132.365 500.936 130.614 493.932 130.614C487.134 130.614 480.748 133.086 474.774 138.03C468.8 142.974 465.813 149.875 465.813 158.733Z" fill="black"/>
<path d="M662.875 77.7749C683.475 77.7749 700.573 85.6029 714.169 101.259C727.971 116.915 734.872 136.073 734.872 158.733V213.117C734.872 217.855 734.666 221.46 734.254 223.932C734.048 226.198 733.121 228.876 731.473 231.966C728.795 237.322 720.864 240 707.68 240C695.114 240 687.286 237.322 684.196 231.966C682.548 228.876 681.518 226.095 681.106 223.623C680.9 221.151 680.797 217.443 680.797 212.499V158.424C680.797 149.978 678.428 143.386 673.69 138.648C668.952 133.91 662.875 131.541 655.459 131.541C648.249 131.541 641.863 133.807 636.301 138.339C630.739 142.665 627.546 147.609 626.722 153.171V213.117C626.722 217.855 626.516 221.46 626.104 223.932C625.898 226.198 624.971 228.876 623.323 231.966C620.645 237.322 612.714 240 599.53 240C586.552 240 578.621 237.219 575.737 231.657C574.295 228.567 573.368 225.889 572.956 223.623C572.75 221.357 572.647 217.752 572.647 212.808V28.0259C572.647 23.2879 572.75 19.7859 572.956 17.5199C573.368 15.0479 574.295 12.3699 575.737 9.48594C578.621 3.92393 586.655 1.14293 599.839 1.14293C612.817 1.14293 620.645 3.92393 623.323 9.48594C624.971 12.5759 625.898 15.3569 626.104 17.8289C626.516 20.0949 626.722 23.5969 626.722 28.3349V96.6239C637.022 84.0579 649.073 77.7749 662.875 77.7749Z" fill="black"/>
<path d="M888.877 158.733C888.877 167.385 891.761 174.183 897.529 179.127C903.297 183.865 909.374 186.234 915.76 186.234C922.352 186.234 928.429 184.38 933.991 180.672C939.759 176.758 944.394 174.801 947.896 174.801C954.076 174.801 961.595 180.26 970.453 191.178C975.191 197.152 977.56 202.508 977.56 207.246C977.56 215.074 971.895 222.387 960.565 229.185C948.823 237.425 934.403 241.545 917.305 241.545C898.147 241.545 879.71 234.644 861.994 220.842C853.548 214.25 846.647 205.495 841.291 194.577C835.935 183.453 833.257 171.299 833.257 158.115C833.257 144.725 835.935 132.674 841.291 121.962C846.647 111.044 853.548 102.289 861.994 95.6969C879.092 82.1009 897.323 75.3029 916.687 75.3029C924.515 75.3029 932.137 76.4359 939.553 78.702C946.969 80.7619 952.428 82.8219 955.93 84.8819L960.874 87.972C964.582 90.444 967.466 92.4009 969.526 93.8429C974.882 97.9629 977.56 102.701 977.56 108.057C977.56 113.207 975.397 119.078 971.071 125.67C963.655 137 956.548 142.665 949.75 142.665C945.836 142.665 940.274 140.399 933.064 135.867C929.356 132.365 924 130.614 916.996 130.614C910.198 130.614 903.812 133.086 897.838 138.03C891.864 142.974 888.877 149.875 888.877 158.733Z" fill="black"/>
<path d="M992.887 158.733C992.887 134.013 1001.54 113.619 1018.84 97.5509C1036.15 81.4829 1055.92 73.4489 1078.17 73.4489C1100.42 73.4489 1120.09 81.4829 1137.19 97.5509C1154.29 113.413 1162.84 133.704 1162.84 158.424C1162.84 175.522 1158.41 190.766 1149.55 204.156C1140.69 217.34 1129.88 227.125 1117.11 233.511C1104.54 239.691 1091.46 242.781 1077.86 242.781C1064.27 242.781 1051.08 239.485 1038.31 232.893C1025.54 226.095 1014.72 216.207 1005.87 203.229C997.213 190.045 992.887 175.213 992.887 158.733ZM1057.47 180.981C1064.06 185.925 1070.76 188.397 1077.55 188.397C1084.35 188.397 1091.15 185.822 1097.95 180.672C1104.75 175.522 1108.14 167.9 1108.14 157.806C1108.14 147.712 1104.95 140.193 1098.57 135.249C1092.18 130.305 1085.28 127.833 1077.86 127.833C1070.45 127.833 1063.55 130.408 1057.16 135.558C1050.77 140.708 1047.58 148.33 1047.58 158.424C1047.58 168.312 1050.88 175.831 1057.47 180.981Z" fill="black"/>
<path d="M1239.66 185.307C1246.46 185.307 1251.5 187.058 1254.8 190.56C1258.09 194.062 1259.74 201.272 1259.74 212.19C1259.74 223.108 1257.99 230.421 1254.49 234.129C1250.99 237.631 1245.94 239.382 1239.35 239.382C1218.54 239.382 1203.92 234.438 1195.47 224.55C1187.02 214.456 1182.8 197.77 1182.8 174.492V27.0989C1182.8 22.3609 1182.9 18.8589 1183.11 16.5929C1183.52 14.1209 1184.45 11.3399 1185.89 8.24994C1188.78 2.89394 1196.81 0.215942 1209.99 0.215942C1222.56 0.215942 1230.39 3.09994 1233.48 8.86794C1235.13 11.7519 1236.05 14.4299 1236.26 16.9019C1236.67 19.1679 1236.88 22.6699 1236.88 27.4079V175.728C1236.88 182.114 1237.8 185.307 1239.66 185.307ZM1320.31 175.728C1320.31 179.642 1321.13 182.217 1322.78 183.453C1324.43 184.689 1328.65 185.307 1335.45 185.307C1342.25 185.307 1347.91 187.058 1352.44 190.56C1356.97 194.062 1359.24 201.272 1359.24 212.19C1359.24 223.108 1356.77 230.421 1351.82 234.129C1347.09 237.631 1340.39 239.382 1331.74 239.382C1288.07 239.382 1266.23 217.752 1266.23 174.492L1265.92 27.0989C1265.92 22.3609 1266.03 18.8589 1266.23 16.5929C1266.64 14.1209 1267.67 11.3399 1269.32 8.24994C1272.41 2.89394 1280.45 0.215942 1293.42 0.215942C1305.99 0.215942 1313.82 3.09994 1316.91 8.86794C1319.17 13.3999 1320.31 19.5799 1320.31 27.4079V175.728Z" fill="black"/>
<path d="M1533.2 139.266C1533.2 151.832 1530.01 161.205 1523.62 167.385C1517.44 173.359 1510.54 176.346 1502.92 176.346H1429.69C1429.69 182.114 1433.08 186.955 1439.88 190.869C1446.68 194.783 1453.48 196.74 1460.28 196.74C1472.22 196.74 1481.6 195.504 1488.4 193.032L1491.79 191.796C1496.74 189.53 1500.86 188.397 1504.15 188.397C1510.75 188.397 1516.41 193.032 1521.15 202.302C1523.83 207.864 1525.17 212.602 1525.17 216.516C1525.17 234.85 1503.23 244.017 1459.35 244.017C1444.11 244.017 1430.51 241.442 1418.56 236.292C1406.82 230.936 1397.65 223.932 1391.06 215.28C1378.08 198.594 1371.59 179.951 1371.59 159.351C1371.59 133.395 1379.94 112.692 1396.62 97.2419C1413.51 81.5859 1434.53 73.7579 1459.66 73.7579C1488.29 73.7579 1509.3 83.8519 1522.69 104.04C1529.7 114.752 1533.2 126.494 1533.2 139.266ZM1468 148.227C1475.83 148.227 1479.74 144.931 1479.74 138.339C1479.74 133.601 1477.89 129.79 1474.18 126.906C1470.68 124.022 1465.53 122.58 1458.73 122.58C1452.14 122.58 1445.55 125.361 1438.96 130.923C1432.36 136.279 1429.07 142.047 1429.07 148.227H1468Z" fill="black"/>
<path d="M1604.34 158.733C1604.34 167.385 1607.23 174.183 1613 179.127C1618.76 183.865 1624.84 186.234 1631.23 186.234C1637.82 186.234 1643.9 184.38 1649.46 180.672C1655.23 176.758 1659.86 174.801 1663.36 174.801C1669.54 174.801 1677.06 180.26 1685.92 191.178C1690.66 197.152 1693.03 202.508 1693.03 207.246C1693.03 215.074 1687.36 222.387 1676.03 229.185C1664.29 237.425 1649.87 241.545 1632.77 241.545C1613.61 241.545 1595.18 234.644 1577.46 220.842C1569.02 214.25 1562.12 205.495 1556.76 194.577C1551.4 183.453 1548.72 171.299 1548.72 158.115C1548.72 144.725 1551.4 132.674 1556.76 121.962C1562.12 111.044 1569.02 102.289 1577.46 95.6969C1594.56 82.1009 1612.79 75.3029 1632.16 75.3029C1639.98 75.3029 1647.6 76.4359 1655.02 78.702C1662.44 80.7619 1667.9 82.8219 1671.4 84.8819L1676.34 87.972C1680.05 90.444 1682.93 92.4009 1684.99 93.8429C1690.35 97.9629 1693.03 102.701 1693.03 108.057C1693.03 113.207 1690.87 119.078 1686.54 125.67C1679.12 137 1672.02 142.665 1665.22 142.665C1661.3 142.665 1655.74 140.399 1648.53 135.867C1644.82 132.365 1639.47 130.614 1632.46 130.614C1625.67 130.614 1619.28 133.086 1613.31 138.03C1607.33 142.974 1604.34 149.875 1604.34 158.733Z" fill="black"/>
<path d="M1804.53 131.85L1784.44 130.614V173.256C1784.44 178.818 1785.27 182.835 1786.91 185.307C1788.77 187.779 1792.06 189.015 1796.8 189.015C1801.75 189.015 1805.45 189.221 1807.93 189.633C1810.6 189.839 1813.38 190.766 1816.27 192.414C1821.01 195.092 1823.38 201.993 1823.38 213.117C1823.38 226.095 1820.49 234.026 1814.72 236.91C1811.63 238.352 1808.85 239.279 1806.38 239.691C1804.11 239.897 1800.72 240 1796.18 240C1774.76 240 1758.49 235.159 1747.36 225.477C1736.24 215.795 1730.68 199.418 1730.68 176.346V130.614C1726.76 131.232 1722.54 131.541 1718.01 131.541C1713.47 131.541 1709.66 129.79 1706.57 126.288C1703.69 122.786 1702.25 116.812 1702.25 108.366C1702.25 99.92 1702.76 93.843 1703.79 90.1349C1704.82 86.221 1706.26 83.4399 1708.12 81.7919C1711.41 79.1139 1715.53 77.7749 1720.48 77.7749L1730.68 79.0109V47.1839C1730.68 42.4459 1730.78 38.9439 1730.98 36.6779C1731.4 34.4119 1732.43 31.9399 1734.07 29.2619C1736.75 24.1119 1744.68 21.5369 1757.87 21.5369C1771.88 21.5369 1780.22 25.3479 1782.9 32.9699C1783.93 36.2659 1784.44 41.5189 1784.44 48.7289V79.0109C1793.51 78.1869 1800.3 77.7749 1804.84 77.7749C1809.57 77.7749 1813.08 77.981 1815.34 78.393C1817.81 78.599 1820.59 79.5259 1823.68 81.174C1829.04 83.8519 1831.72 91.7829 1831.72 104.967C1831.72 117.945 1828.94 125.876 1823.38 128.76C1820.29 130.202 1817.5 131.129 1815.03 131.541C1812.77 131.747 1809.26 131.85 1804.53 131.85Z" fill="black"/>
<path d="M1844.15 158.733C1844.15 134.013 1852.8 113.619 1870.1 97.5509C1887.41 81.4829 1907.18 73.4489 1929.43 73.4489C1951.68 73.4489 1971.35 81.4829 1988.45 97.5509C2005.55 113.413 2014.1 133.704 2014.1 158.424C2014.1 175.522 2009.67 190.766 2000.81 204.156C1991.95 217.34 1981.14 227.125 1968.36 233.511C1955.8 239.691 1942.72 242.781 1929.12 242.781C1915.52 242.781 1902.34 239.485 1889.57 232.893C1876.8 226.095 1865.98 216.207 1857.12 203.229C1848.47 190.045 1844.15 175.213 1844.15 158.733ZM1908.73 180.981C1915.32 185.925 1922.01 188.397 1928.81 188.397C1935.61 188.397 1942.41 185.822 1949.21 180.672C1956 175.522 1959.4 167.9 1959.4 157.806C1959.4 147.712 1956.21 140.193 1949.82 135.249C1943.44 130.305 1936.54 127.833 1929.12 127.833C1921.7 127.833 1914.8 130.408 1908.42 135.558C1902.03 140.708 1898.84 148.33 1898.84 158.424C1898.84 168.312 1902.13 175.831 1908.73 180.981Z" fill="black"/>
<path d="M2144.68 79.0109C2148.6 80.2469 2151.79 82.4099 2154.26 85.5C2156.94 88.3839 2158.28 93.1219 2158.28 99.7139C2158.28 106.306 2156.32 113.516 2152.41 121.344C2148.49 129.172 2142.83 133.086 2135.41 133.086C2131.7 133.086 2128.1 132.262 2124.6 130.614C2121.3 128.966 2116.87 128.142 2111.31 128.142C2105.75 128.142 2100.5 130.099 2095.55 134.013C2090.81 137.927 2088.44 142.665 2088.44 148.227V213.117C2088.44 217.855 2088.24 221.46 2087.83 223.932C2087.62 226.198 2086.69 228.876 2085.05 231.966C2081.96 237.322 2073.92 240 2060.94 240C2051.06 240 2043.95 238.249 2039.62 234.747C2036.33 231.863 2034.47 227.434 2034.06 221.46C2034.06 219.4 2034.06 216.413 2034.06 212.499V104.04C2034.06 99.3019 2034.16 95.7999 2034.37 93.5339C2034.78 91.0619 2035.71 88.3839 2037.15 85.5C2040.03 79.938 2048.07 77.157 2061.25 77.157C2073.61 77.157 2081.34 79.5259 2084.43 84.2639C2086.69 87.5599 2087.83 90.9589 2087.83 94.461C2088.86 93.019 2090.3 91.268 2092.15 89.2079C2094.21 87.1479 2098.44 84.3669 2104.82 80.8649C2111.21 77.363 2116.77 75.612 2121.51 75.612C2126.45 75.612 2130.57 75.9209 2133.87 76.5389C2137.16 76.9509 2140.77 77.7749 2144.68 79.0109Z" fill="black"/>
</svg>
