<svg width="1293" height="434" viewBox="0 0 1293 434" fill="none" xmlns="http://www.w3.org/2000/svg">
<rect width="1293" height="434" fill="white"/>
<path d="M419.056 354.128C422.368 354.128 424.312 355.04 424.888 356.864C425.176 357.776 425.32 358.976 425.32 360.464C425.32 361.952 425.152 363.152 424.816 364.064C424.528 364.928 424.048 365.552 423.376 365.936C422.368 366.512 420.904 366.8 418.984 366.8L414.376 366.512V385.808C414.376 387.632 414.136 389 413.656 389.912C413.224 390.776 412.528 391.352 411.568 391.64C410.656 391.928 409.456 392.072 407.968 392.072C406.48 392.072 405.28 391.928 404.368 391.64C403.504 391.304 402.88 390.8 402.496 390.128C402.112 389.408 401.872 388.76 401.776 388.184C401.728 387.608 401.704 386.768 401.704 385.664V366.584H399.112C397.864 366.488 396.976 366.2 396.448 365.72C395.536 364.808 395.08 363.056 395.08 360.464C395.08 356.528 396.496 354.56 399.328 354.56H401.704V350.744C401.704 347.048 403.024 343.712 405.664 340.736C408.304 337.712 412.12 336.2 417.112 336.2C418.216 336.2 419.032 336.248 419.56 336.344C420.136 336.392 420.784 336.608 421.504 336.992C422.8 337.616 423.448 339.464 423.448 342.536C423.448 344.84 423.04 346.496 422.224 347.504C421.552 348.272 420.496 348.704 419.056 348.8C418.624 348.8 417.952 348.8 417.04 348.8C415.264 348.8 414.376 349.4 414.376 350.6V354.56L419.056 354.128ZM429.568 360.392C429.568 359.288 429.592 358.472 429.64 357.944C429.736 357.368 429.952 356.72 430.288 356C430.96 354.752 432.832 354.128 435.904 354.128C438.208 354.128 439.84 354.536 440.8 355.352C441.616 356.024 442.048 357.056 442.096 358.448C442.144 358.928 442.168 359.624 442.168 360.536V385.736C442.168 386.84 442.12 387.68 442.024 388.256C441.976 388.784 441.76 389.408 441.376 390.128C440.752 391.376 438.904 392 435.832 392C432.808 392 430.96 391.352 430.288 390.056C429.952 389.336 429.736 388.712 429.64 388.184C429.592 387.656 429.568 386.816 429.568 385.664V360.392ZM441.376 347.072C441.04 347.744 440.416 348.224 439.504 348.512C438.592 348.8 437.368 348.944 435.832 348.944C434.344 348.944 433.144 348.8 432.232 348.512C431.32 348.224 430.672 347.72 430.288 347C429.952 346.28 429.736 345.656 429.64 345.128C429.592 344.552 429.568 343.712 429.568 342.608C429.568 341.504 429.592 340.688 429.64 340.16C429.736 339.584 429.952 338.96 430.288 338.288C430.96 336.992 432.832 336.344 435.904 336.344C438.928 336.344 440.752 336.992 441.376 338.288C441.76 339.008 441.976 339.656 442.024 340.232C442.12 340.76 442.168 341.576 442.168 342.68C442.168 343.784 442.12 344.624 442.024 345.2C441.976 345.728 441.76 346.352 441.376 347.072Z" fill="black"/>
<path d="M469.023 354.056C473.823 354.056 477.807 355.904 480.975 359.6C484.191 363.248 485.799 367.712 485.799 372.992V385.664C485.799 386.768 485.751 387.608 485.655 388.184C485.607 388.712 485.415 389.312 485.079 389.984C484.407 391.28 482.535 391.928 479.463 391.928C476.055 391.928 474.087 391.04 473.559 389.264C473.271 388.448 473.127 387.224 473.127 385.592V372.92C473.127 370.952 472.551 369.416 471.399 368.312C470.295 367.208 468.783 366.656 466.863 366.656C464.991 366.656 463.455 367.232 462.255 368.384C461.103 369.536 460.527 371.048 460.527 372.92V385.664C460.527 386.768 460.479 387.608 460.383 388.184C460.335 388.712 460.119 389.312 459.735 389.984C459.111 391.28 457.263 391.928 454.191 391.928C451.167 391.928 449.319 391.28 448.647 389.984C448.311 389.264 448.095 388.64 447.999 388.112C447.951 387.536 447.927 386.696 447.927 385.592V360.104C447.927 359.048 447.951 358.256 447.999 357.728C448.095 357.152 448.335 356.528 448.719 355.856C449.391 354.656 451.239 354.056 454.263 354.056C457.191 354.056 458.991 354.608 459.663 355.712C460.143 356.528 460.383 357.512 460.383 358.664C460.575 358.328 461.007 357.848 461.679 357.224C462.351 356.6 462.999 356.096 463.623 355.712C465.255 354.608 467.055 354.056 469.023 354.056Z" fill="black"/>
<path d="M503.471 373.064C503.471 375.08 504.143 376.664 505.487 377.816C506.831 378.92 508.247 379.472 509.735 379.472C511.271 379.472 512.687 379.04 513.983 378.176C515.327 377.264 516.407 376.808 517.223 376.808C518.663 376.808 520.415 378.08 522.479 380.624C523.583 382.016 524.135 383.264 524.135 384.368C524.135 386.192 522.815 387.896 520.175 389.48C517.439 391.4 514.079 392.36 510.095 392.36C505.631 392.36 501.335 390.752 497.207 387.536C495.239 386 493.631 383.96 492.383 381.416C491.135 378.824 490.511 375.992 490.511 372.92C490.511 369.8 491.135 366.992 492.383 364.496C493.631 361.952 495.239 359.912 497.207 358.376C501.191 355.208 505.439 353.624 509.951 353.624C511.775 353.624 513.551 353.888 515.279 354.416C517.007 354.896 518.279 355.376 519.095 355.856L520.247 356.576C521.111 357.152 521.783 357.608 522.263 357.944C523.511 358.904 524.135 360.008 524.135 361.256C524.135 362.456 523.631 363.824 522.623 365.36C520.895 368 519.239 369.32 517.655 369.32C516.743 369.32 515.447 368.792 513.767 367.736C512.903 366.92 511.655 366.512 510.023 366.512C508.439 366.512 506.951 367.088 505.559 368.24C504.167 369.392 503.471 371 503.471 373.064Z" fill="black"/>
<path d="M549.388 354.2C554.188 354.2 558.172 356.024 561.34 359.672C564.556 363.32 566.164 367.784 566.164 373.064V385.736C566.164 386.84 566.116 387.68 566.02 388.256C565.972 388.784 565.756 389.408 565.372 390.128C564.748 391.376 562.9 392 559.828 392C556.9 392 555.076 391.376 554.356 390.128C553.972 389.408 553.732 388.76 553.636 388.184C553.588 387.608 553.564 386.744 553.564 385.592V372.992C553.564 371.024 553.012 369.488 551.908 368.384C550.804 367.28 549.388 366.728 547.66 366.728C545.98 366.728 544.492 367.256 543.196 368.312C541.9 369.32 541.156 370.472 540.964 371.768V385.736C540.964 386.84 540.916 387.68 540.82 388.256C540.772 388.784 540.556 389.408 540.172 390.128C539.548 391.376 537.7 392 534.628 392C531.604 392 529.756 391.352 529.084 390.056C528.748 389.336 528.532 388.712 528.436 388.184C528.388 387.656 528.364 386.816 528.364 385.664V342.608C528.364 341.504 528.388 340.688 528.436 340.16C528.532 339.584 528.748 338.96 529.084 338.288C529.756 336.992 531.628 336.344 534.7 336.344C537.724 336.344 539.548 336.992 540.172 338.288C540.556 339.008 540.772 339.656 540.82 340.232C540.916 340.76 540.964 341.576 540.964 342.68V358.592C543.364 355.664 546.172 354.2 549.388 354.2Z" fill="black"/>
<path d="M602.049 373.064C602.049 375.08 602.721 376.664 604.065 377.816C605.409 378.92 606.825 379.472 608.313 379.472C609.849 379.472 611.265 379.04 612.561 378.176C613.905 377.264 614.985 376.808 615.801 376.808C617.241 376.808 618.993 378.08 621.057 380.624C622.161 382.016 622.713 383.264 622.713 384.368C622.713 386.192 621.393 387.896 618.753 389.48C616.017 391.4 612.657 392.36 608.673 392.36C604.209 392.36 599.913 390.752 595.785 387.536C593.817 386 592.209 383.96 590.961 381.416C589.713 378.824 589.089 375.992 589.089 372.92C589.089 369.8 589.713 366.992 590.961 364.496C592.209 361.952 593.817 359.912 595.785 358.376C599.769 355.208 604.017 353.624 608.529 353.624C610.353 353.624 612.129 353.888 613.857 354.416C615.585 354.896 616.857 355.376 617.673 355.856L618.825 356.576C619.689 357.152 620.361 357.608 620.841 357.944C622.089 358.904 622.713 360.008 622.713 361.256C622.713 362.456 622.209 363.824 621.201 365.36C619.473 368 617.817 369.32 616.233 369.32C615.321 369.32 614.025 368.792 612.345 367.736C611.481 366.92 610.233 366.512 608.601 366.512C607.017 366.512 605.529 367.088 604.137 368.24C602.745 369.392 602.049 371 602.049 373.064Z" fill="black"/>
<path d="M626.284 373.064C626.284 367.304 628.3 362.552 632.332 358.808C636.364 355.064 640.972 353.192 646.156 353.192C651.34 353.192 655.924 355.064 659.908 358.808C663.892 362.504 665.884 367.232 665.884 372.992C665.884 376.976 664.852 380.528 662.788 383.648C660.724 386.72 658.204 389 655.228 390.488C652.3 391.928 649.252 392.648 646.084 392.648C642.916 392.648 639.844 391.88 636.868 390.344C633.892 388.76 631.372 386.456 629.308 383.432C627.292 380.36 626.284 376.904 626.284 373.064ZM641.332 378.248C642.868 379.4 644.428 379.976 646.012 379.976C647.596 379.976 649.18 379.376 650.764 378.176C652.348 376.976 653.14 375.2 653.14 372.848C653.14 370.496 652.396 368.744 650.908 367.592C649.42 366.44 647.812 365.864 646.084 365.864C644.356 365.864 642.748 366.464 641.26 367.664C639.772 368.864 639.028 370.64 639.028 372.992C639.028 375.296 639.796 377.048 641.332 378.248Z" fill="black"/>
<path d="M683.784 379.256C685.368 379.256 686.544 379.664 687.312 380.48C688.08 381.296 688.464 382.976 688.464 385.52C688.464 388.064 688.056 389.768 687.24 390.632C686.424 391.448 685.248 391.856 683.712 391.856C678.864 391.856 675.456 390.704 673.488 388.4C671.52 386.048 670.536 382.16 670.536 376.736V342.392C670.536 341.288 670.56 340.472 670.608 339.944C670.704 339.368 670.92 338.72 671.256 338C671.928 336.752 673.8 336.128 676.872 336.128C679.8 336.128 681.624 336.8 682.344 338.144C682.728 338.816 682.944 339.44 682.992 340.016C683.088 340.544 683.136 341.36 683.136 342.464V377.024C683.136 378.512 683.352 379.256 683.784 379.256ZM702.576 377.024C702.576 377.936 702.768 378.536 703.152 378.824C703.536 379.112 704.52 379.256 706.104 379.256C707.688 379.256 709.008 379.664 710.064 380.48C711.12 381.296 711.648 382.976 711.648 385.52C711.648 388.064 711.072 389.768 709.92 390.632C708.816 391.448 707.256 391.856 705.24 391.856C695.064 391.856 689.976 386.816 689.976 376.736L689.904 342.392C689.904 341.288 689.928 340.472 689.976 339.944C690.072 339.368 690.312 338.72 690.696 338C691.416 336.752 693.288 336.128 696.312 336.128C699.24 336.128 701.064 336.8 701.784 338.144C702.312 339.2 702.576 340.64 702.576 342.464V377.024Z" fill="black"/>
<path d="M752.183 368.528C752.183 371.456 751.439 373.64 749.951 375.08C748.511 376.472 746.903 377.168 745.127 377.168H728.063C728.063 378.512 728.855 379.64 730.439 380.552C732.023 381.464 733.607 381.92 735.191 381.92C737.975 381.92 740.159 381.632 741.743 381.056L742.535 380.768C743.687 380.24 744.647 379.976 745.415 379.976C746.951 379.976 748.271 381.056 749.375 383.216C749.999 384.512 750.311 385.616 750.311 386.528C750.311 390.8 745.199 392.936 734.975 392.936C731.423 392.936 728.255 392.336 725.471 391.136C722.735 389.888 720.599 388.256 719.063 386.24C716.039 382.352 714.527 378.008 714.527 373.208C714.527 367.16 716.471 362.336 720.359 358.736C724.295 355.088 729.191 353.264 735.047 353.264C741.719 353.264 746.615 355.616 749.735 360.32C751.367 362.816 752.183 365.552 752.183 368.528ZM736.991 370.616C738.815 370.616 739.727 369.848 739.727 368.312C739.727 367.208 739.295 366.32 738.431 365.648C737.615 364.976 736.415 364.64 734.831 364.64C733.295 364.64 731.759 365.288 730.223 366.584C728.687 367.832 727.919 369.176 727.919 370.616H736.991Z" fill="black"/>
<path d="M768.76 373.064C768.76 375.08 769.432 376.664 770.776 377.816C772.12 378.92 773.536 379.472 775.024 379.472C776.56 379.472 777.976 379.04 779.272 378.176C780.616 377.264 781.696 376.808 782.512 376.808C783.952 376.808 785.704 378.08 787.768 380.624C788.872 382.016 789.424 383.264 789.424 384.368C789.424 386.192 788.104 387.896 785.464 389.48C782.728 391.4 779.368 392.36 775.384 392.36C770.92 392.36 766.624 390.752 762.496 387.536C760.528 386 758.92 383.96 757.672 381.416C756.424 378.824 755.8 375.992 755.8 372.92C755.8 369.8 756.424 366.992 757.672 364.496C758.92 361.952 760.528 359.912 762.496 358.376C766.48 355.208 770.728 353.624 775.24 353.624C777.064 353.624 778.84 353.888 780.568 354.416C782.296 354.896 783.568 355.376 784.384 355.856L785.536 356.576C786.4 357.152 787.072 357.608 787.552 357.944C788.8 358.904 789.424 360.008 789.424 361.256C789.424 362.456 788.92 363.824 787.912 365.36C786.184 368 784.528 369.32 782.944 369.32C782.032 369.32 780.736 368.792 779.056 367.736C778.192 366.92 776.944 366.512 775.312 366.512C773.728 366.512 772.24 367.088 770.848 368.24C769.456 369.392 768.76 371 768.76 373.064Z" fill="black"/>
<path d="M815.404 366.8L810.724 366.512V376.448C810.724 377.744 810.916 378.68 811.3 379.256C811.732 379.832 812.5 380.12 813.604 380.12C814.756 380.12 815.62 380.168 816.196 380.264C816.82 380.312 817.468 380.528 818.14 380.912C819.244 381.536 819.796 383.144 819.796 385.736C819.796 388.76 819.124 390.608 817.78 391.28C817.06 391.616 816.412 391.832 815.836 391.928C815.308 391.976 814.516 392 813.46 392C808.468 392 804.676 390.872 802.084 388.616C799.492 386.36 798.196 382.544 798.196 377.168V366.512C797.284 366.656 796.3 366.728 795.244 366.728C794.188 366.728 793.3 366.32 792.58 365.504C791.908 364.688 791.572 363.296 791.572 361.328C791.572 359.36 791.692 357.944 791.932 357.08C792.172 356.168 792.508 355.52 792.94 355.136C793.708 354.512 794.668 354.2 795.82 354.2L798.196 354.488V347.072C798.196 345.968 798.22 345.152 798.268 344.624C798.364 344.096 798.604 343.52 798.988 342.896C799.612 341.696 801.46 341.096 804.532 341.096C807.796 341.096 809.74 341.984 810.364 343.76C810.604 344.528 810.724 345.752 810.724 347.432V354.488C812.836 354.296 814.42 354.2 815.476 354.2C816.58 354.2 817.396 354.248 817.924 354.344C818.5 354.392 819.148 354.608 819.868 354.992C821.116 355.616 821.74 357.464 821.74 360.536C821.74 363.56 821.092 365.408 819.796 366.08C819.076 366.416 818.428 366.632 817.852 366.728C817.324 366.776 816.508 366.8 815.404 366.8Z" fill="black"/>
<path d="M824.636 373.064C824.636 367.304 826.652 362.552 830.684 358.808C834.716 355.064 839.324 353.192 844.508 353.192C849.692 353.192 854.276 355.064 858.26 358.808C862.244 362.504 864.236 367.232 864.236 372.992C864.236 376.976 863.204 380.528 861.14 383.648C859.076 386.72 856.556 389 853.58 390.488C850.652 391.928 847.604 392.648 844.436 392.648C841.268 392.648 838.196 391.88 835.22 390.344C832.244 388.76 829.724 386.456 827.66 383.432C825.644 380.36 824.636 376.904 824.636 373.064ZM839.684 378.248C841.22 379.4 842.78 379.976 844.364 379.976C845.948 379.976 847.532 379.376 849.116 378.176C850.7 376.976 851.492 375.2 851.492 372.848C851.492 370.496 850.748 368.744 849.26 367.592C847.772 366.44 846.164 365.864 844.436 365.864C842.708 365.864 841.1 366.464 839.612 367.664C838.124 368.864 837.38 370.64 837.38 372.992C837.38 375.296 838.148 377.048 839.684 378.248Z" fill="black"/>
<path d="M894.664 354.488C895.576 354.776 896.32 355.28 896.896 356C897.52 356.672 897.832 357.776 897.832 359.312C897.832 360.848 897.376 362.528 896.464 364.352C895.552 366.176 894.232 367.088 892.504 367.088C891.64 367.088 890.8 366.896 889.984 366.512C889.216 366.128 888.184 365.936 886.888 365.936C885.592 365.936 884.368 366.392 883.216 367.304C882.112 368.216 881.56 369.32 881.56 370.616V385.736C881.56 386.84 881.512 387.68 881.416 388.256C881.368 388.784 881.152 389.408 880.768 390.128C880.048 391.376 878.176 392 875.152 392C872.848 392 871.192 391.592 870.184 390.776C869.416 390.104 868.984 389.072 868.888 387.68C868.888 387.2 868.888 386.504 868.888 385.592V360.32C868.888 359.216 868.912 358.4 868.96 357.872C869.056 357.296 869.272 356.672 869.608 356C870.28 354.704 872.152 354.056 875.224 354.056C878.104 354.056 879.904 354.608 880.624 355.712C881.152 356.48 881.416 357.272 881.416 358.088C881.656 357.752 881.992 357.344 882.424 356.864C882.904 356.384 883.888 355.736 885.376 354.92C886.864 354.104 888.16 353.696 889.264 353.696C890.416 353.696 891.376 353.768 892.144 353.912C892.912 354.008 893.752 354.2 894.664 354.488Z" fill="black"/>
<rect x="524.225" y="160.828" width="69" height="16.025" transform="rotate(45.3318 524.225 160.828)" fill="#FB292B" stroke="black" stroke-width="4"/>
<path d="M601 304C609.602 302.912 619 291 619 291L589 278C580.218 278.471 577.28 280.575 576 288C576 288 589.5 305.455 601 304Z" fill="#112935"/>
<path d="M686 304C677.398 302.912 668 291 668 291L698 278C706.782 278.471 709.72 280.575 711 288C711 288 697.5 305.455 686 304Z" fill="#112935"/>
<path d="M732.5 193C732.5 249.01 692.177 293.5 643.5 293.5C594.823 293.5 554.5 249.01 554.5 193C554.5 136.99 594.823 92.5 643.5 92.5C692.177 92.5 732.5 136.99 732.5 193Z" fill="#FFD39E" stroke="black" stroke-width="9"/>
<path d="M728.64 202.375C726.654 226.78 716.564 249.413 700.417 265.68C684.269 281.947 663.275 290.629 641.695 289.964C620.114 289.3 599.565 279.338 584.219 262.1C568.872 244.863 559.878 221.642 559.061 197.151L644 193.5L728.64 202.375Z" fill="#F3E7DB"/>
<path d="M644 186L626.679 153.75H661.321L644 186Z" fill="#112935"/>
<circle cx="675.5" cy="143.5" r="6.5" fill="#112935"/>
<circle cx="611.5" cy="143.5" r="6.5" fill="#112935"/>
<ellipse cx="603" cy="164" rx="8" ry="6" fill="#FE9099"/>
<ellipse cx="684" cy="164" rx="8" ry="6" fill="#FE9099"/>
<path d="M728.5 199C669.5 200.5 651.167 198.833 648.5 199L558.5 194.5" stroke="black" stroke-width="9"/>
<path d="M628.124 201.997C619.562 235.207 608.291 246.557 580.41 258.068C565.788 236.418 560.35 223.624 557 199.293L628.124 201.997Z" fill="#FFD39E" stroke="black" stroke-width="2"/>
<path d="M659.829 202.98C653.57 213.461 694.907 270.01 704.317 261.643C713.727 253.275 724.95 229.654 730.993 204.277L659.829 202.98Z" fill="#FFD39E" stroke="black" stroke-width="2"/>
<rect x="502" y="159.588" width="23" height="81" transform="rotate(-16.6452 502 159.588)" fill="black"/>
<path d="M540 113.5C540 142.844 520.374 165 498 165C475.626 165 456 142.844 456 113.5C456 84.1561 475.626 62 498 62C520.374 62 540 84.1561 540 113.5Z" stroke="black" stroke-width="10"/>
<line x1="370" y1="302" x2="911" y2="302" stroke="black" stroke-width="4" stroke-linecap="round"/>
<path d="M669.769 91.2497L667.55 95.0454L671.894 95.7274L701.494 100.375L707.104 101.256L704.669 96.1252L690.191 65.6109L687.757 60.4803L684.891 65.3828L669.769 91.2497Z" fill="#FD292B" stroke="black" stroke-width="6"/>
<path d="M720.976 123.724L718.492 127.352L716.019 123.716L699.169 98.941L695.975 94.2454L701.654 94.2539L735.429 94.3046L741.108 94.3131L737.9 98.9992L720.976 123.724Z" fill="#FA282B" stroke="black" stroke-width="6"/>
</svg>
