<svg width="2752" height="323" viewBox="0 0 2752 323" fill="none" xmlns="http://www.w3.org/2000/svg">
<path d="M665.532 112.466C679.746 112.466 688.089 116.38 690.561 124.208C691.797 128.122 692.415 133.272 692.415 139.658C692.415 146.044 691.694 151.194 690.252 155.108C689.016 158.816 686.956 161.494 684.072 163.142C679.746 165.614 673.463 166.85 665.223 166.85L645.447 165.614V248.426C645.447 256.254 644.417 262.125 642.357 266.039C640.503 269.747 637.516 272.219 633.396 273.455C629.482 274.691 624.332 275.309 617.946 275.309C611.56 275.309 606.41 274.691 602.496 273.455C598.788 272.013 596.11 269.85 594.462 266.966C592.814 263.876 591.784 261.095 591.372 258.623C591.166 256.151 591.063 252.546 591.063 247.808V165.923H579.939C574.583 165.511 570.772 164.275 568.506 162.215C564.592 158.301 562.635 150.782 562.635 139.658C562.635 122.766 568.712 114.32 580.866 114.32H591.063V97.9429C591.063 82.0809 596.728 67.7639 608.058 54.9919C619.388 42.0139 635.765 35.5249 657.189 35.5249C661.927 35.5249 665.429 35.7309 667.695 36.1429C670.167 36.3489 672.948 37.2759 676.038 38.9239C681.6 41.6019 684.381 49.5329 684.381 62.7169C684.381 72.6049 682.63 79.7119 679.128 84.0379C676.244 87.3339 671.712 89.1879 665.532 89.5999C663.678 89.5999 660.794 89.5999 656.88 89.5999C649.258 89.5999 645.447 92.1749 645.447 97.3249V114.32L665.532 112.466ZM710.646 139.349C710.646 134.611 710.749 131.109 710.955 128.843C711.367 126.371 712.294 123.59 713.736 120.5C716.62 115.144 724.654 112.466 737.838 112.466C747.726 112.466 754.73 114.217 758.85 117.719C762.352 120.603 764.206 125.032 764.412 131.006C764.618 133.066 764.721 136.053 764.721 139.967V248.117C764.721 252.855 764.515 256.46 764.103 258.932C763.897 261.198 762.97 263.876 761.322 266.966C758.644 272.322 750.713 275 737.529 275C724.551 275 716.62 272.219 713.736 266.657C712.294 263.567 711.367 260.889 710.955 258.623C710.749 256.357 710.646 252.752 710.646 247.808V139.349ZM761.322 82.1839C759.88 85.0679 757.202 87.1279 753.288 88.3639C749.374 89.5999 744.121 90.2179 737.529 90.2179C731.143 90.2179 725.993 89.5999 722.079 88.3639C718.165 87.1279 715.384 84.9649 713.736 81.875C712.294 78.7849 711.367 76.1069 710.955 73.8409C710.749 71.3689 710.646 67.7639 710.646 63.0259C710.646 58.2879 710.749 54.7859 710.955 52.5199C711.367 50.0479 712.294 47.3699 713.736 44.4859C716.62 38.9239 724.654 36.1429 737.838 36.1429C750.816 36.1429 758.644 38.9239 761.322 44.4859C762.97 47.5759 763.897 50.3569 764.103 52.8289C764.515 55.0949 764.721 58.5969 764.721 63.3349C764.721 68.0729 764.515 71.6779 764.103 74.1499C763.897 76.4159 762.97 79.0939 761.322 82.1839Z" fill="black"/>
<path d="M879.973 112.157C900.573 112.157 917.671 120.088 931.267 135.95C945.069 151.606 951.97 170.764 951.97 193.424V247.808C951.97 252.546 951.764 256.151 951.352 258.623C951.146 260.889 950.322 263.464 948.88 266.348C945.996 271.91 937.962 274.691 924.778 274.691C910.152 274.691 901.706 270.88 899.44 263.258C898.204 259.756 897.586 254.503 897.586 247.499V193.115C897.586 184.669 895.114 178.077 890.17 173.339C885.432 168.601 878.943 166.232 870.703 166.232C862.669 166.232 856.077 168.704 850.927 173.648C845.983 178.592 843.511 185.081 843.511 193.115V247.808C843.511 252.546 843.305 256.151 842.893 258.623C842.687 260.889 841.76 263.464 840.112 266.348C837.434 271.91 829.503 274.691 816.319 274.691C803.341 274.691 795.41 271.91 792.526 266.348C791.084 263.258 790.157 260.58 789.745 258.314C789.539 255.842 789.436 252.237 789.436 247.499V138.113C789.436 133.581 789.539 130.182 789.745 127.916C790.157 125.444 791.187 122.766 792.835 119.882C795.719 114.732 803.65 112.157 816.628 112.157C829.194 112.157 836.919 114.526 839.803 119.264C841.863 122.766 842.893 126.989 842.893 131.933C843.717 130.491 845.571 128.431 848.455 125.753C851.339 123.075 854.12 120.912 856.798 119.264C863.802 114.526 871.527 112.157 879.973 112.157Z" fill="black"/>
<path d="M1027.81 193.733C1027.81 202.385 1030.7 209.183 1036.46 214.127C1042.23 218.865 1048.31 221.234 1054.7 221.234C1061.29 221.234 1067.36 219.38 1072.93 215.672C1078.69 211.758 1083.33 209.801 1086.83 209.801C1093.01 209.801 1100.53 215.26 1109.39 226.178C1114.13 232.152 1116.5 237.508 1116.5 242.246C1116.5 250.074 1110.83 257.387 1099.5 264.185C1087.76 272.425 1073.34 276.545 1056.24 276.545C1037.08 276.545 1018.65 269.644 1000.93 255.842C992.484 249.25 985.583 240.495 980.227 229.577C974.871 218.453 972.193 206.299 972.193 193.115C972.193 179.725 974.871 167.674 980.227 156.962C985.583 146.044 992.484 137.289 1000.93 130.697C1018.03 117.101 1036.26 110.303 1055.62 110.303C1063.45 110.303 1071.07 111.436 1078.49 113.702C1085.9 115.762 1091.36 117.822 1094.87 119.882L1099.81 122.972C1103.52 125.444 1106.4 127.401 1108.46 128.843C1113.82 132.963 1116.5 137.701 1116.5 143.057C1116.5 148.207 1114.33 154.078 1110.01 160.67C1102.59 172 1095.48 177.665 1088.69 177.665C1084.77 177.665 1079.21 175.399 1072 170.867C1068.29 167.365 1062.94 165.614 1055.93 165.614C1049.13 165.614 1042.75 168.086 1036.77 173.03C1030.8 177.974 1027.81 184.875 1027.81 193.733Z" fill="black"/>
<path d="M1224.88 112.775C1245.48 112.775 1262.57 120.603 1276.17 136.259C1289.97 151.915 1296.87 171.073 1296.87 193.733V248.117C1296.87 252.855 1296.67 256.46 1296.25 258.932C1296.05 261.198 1295.12 263.876 1293.47 266.966C1290.8 272.322 1282.86 275 1269.68 275C1257.11 275 1249.29 272.322 1246.2 266.966C1244.55 263.876 1243.52 261.095 1243.11 258.623C1242.9 256.151 1242.8 252.443 1242.8 247.499V193.424C1242.8 184.978 1240.43 178.386 1235.69 173.648C1230.95 168.91 1224.88 166.541 1217.46 166.541C1210.25 166.541 1203.86 168.807 1198.3 173.339C1192.74 177.665 1189.55 182.609 1188.72 188.171V248.117C1188.72 252.855 1188.52 256.46 1188.1 258.932C1187.9 261.198 1186.97 263.876 1185.32 266.966C1182.65 272.322 1174.71 275 1161.53 275C1148.55 275 1140.62 272.219 1137.74 266.657C1136.3 263.567 1135.37 260.889 1134.96 258.623C1134.75 256.357 1134.65 252.752 1134.65 247.808V63.0259C1134.65 58.2879 1134.75 54.7859 1134.96 52.5199C1135.37 50.0479 1136.3 47.3699 1137.74 44.4859C1140.62 38.9239 1148.66 36.1429 1161.84 36.1429C1174.82 36.1429 1182.65 38.9239 1185.32 44.4859C1186.97 47.5759 1187.9 50.3569 1188.1 52.8289C1188.52 55.0949 1188.72 58.5969 1188.72 63.3349V131.624C1199.02 119.058 1211.07 112.775 1224.88 112.775Z" fill="black"/>
<path d="M1450.88 193.733C1450.88 202.385 1453.76 209.183 1459.53 214.127C1465.3 218.865 1471.37 221.234 1477.76 221.234C1484.35 221.234 1490.43 219.38 1495.99 215.672C1501.76 211.758 1506.39 209.801 1509.9 209.801C1516.08 209.801 1523.6 215.26 1532.45 226.178C1537.19 232.152 1539.56 237.508 1539.56 242.246C1539.56 250.074 1533.9 257.387 1522.57 264.185C1510.82 272.425 1496.4 276.545 1479.31 276.545C1460.15 276.545 1441.71 269.644 1423.99 255.842C1415.55 249.25 1408.65 240.495 1403.29 229.577C1397.94 218.453 1395.26 206.299 1395.26 193.115C1395.26 179.725 1397.94 167.674 1403.29 156.962C1408.65 146.044 1415.55 137.289 1423.99 130.697C1441.09 117.101 1459.32 110.303 1478.69 110.303C1486.52 110.303 1494.14 111.436 1501.55 113.702C1508.97 115.762 1514.43 117.822 1517.93 119.882L1522.87 122.972C1526.58 125.444 1529.47 127.401 1531.53 128.843C1536.88 132.963 1539.56 137.701 1539.56 143.057C1539.56 148.207 1537.4 154.078 1533.07 160.67C1525.66 172 1518.55 177.665 1511.75 177.665C1507.84 177.665 1502.27 175.399 1495.06 170.867C1491.36 167.365 1486 165.614 1479 165.614C1472.2 165.614 1465.81 168.086 1459.84 173.03C1453.86 177.974 1450.88 184.875 1450.88 193.733Z" fill="black"/>
<path d="M1554.89 193.733C1554.89 169.013 1563.54 148.619 1580.84 132.551C1598.15 116.483 1617.92 108.449 1640.17 108.449C1662.42 108.449 1682.09 116.483 1699.19 132.551C1716.29 148.413 1724.84 168.704 1724.84 193.424C1724.84 210.522 1720.41 225.766 1711.55 239.156C1702.69 252.34 1691.88 262.125 1679.11 268.511C1666.54 274.691 1653.46 277.781 1639.86 277.781C1626.27 277.781 1613.08 274.485 1600.31 267.893C1587.54 261.095 1576.72 251.207 1567.87 238.229C1559.21 225.045 1554.89 210.213 1554.89 193.733ZM1619.47 215.981C1626.06 220.925 1632.76 223.397 1639.55 223.397C1646.35 223.397 1653.15 220.822 1659.95 215.672C1666.75 210.522 1670.14 202.9 1670.14 192.806C1670.14 182.712 1666.95 175.193 1660.57 170.249C1654.18 165.305 1647.28 162.833 1639.86 162.833C1632.45 162.833 1625.55 165.408 1619.16 170.558C1612.77 175.708 1609.58 183.33 1609.58 193.424C1609.58 203.312 1612.88 210.831 1619.47 215.981Z" fill="black"/>
<path d="M1801.66 220.307C1808.46 220.307 1813.5 222.058 1816.8 225.56C1820.09 229.062 1821.74 236.272 1821.74 247.19C1821.74 258.108 1819.99 265.421 1816.49 269.129C1812.99 272.631 1807.94 274.382 1801.35 274.382C1780.54 274.382 1765.92 269.438 1757.47 259.55C1749.02 249.456 1744.8 232.77 1744.8 209.492V62.0989C1744.8 57.3609 1744.9 53.8589 1745.11 51.5929C1745.52 49.1209 1746.45 46.3399 1747.89 43.2499C1750.78 37.8939 1758.81 35.2159 1771.99 35.2159C1784.56 35.2159 1792.39 38.0999 1795.48 43.8679C1797.13 46.7519 1798.05 49.4299 1798.26 51.9019C1798.67 54.1679 1798.88 57.6699 1798.88 62.4079V210.728C1798.88 217.114 1799.8 220.307 1801.66 220.307ZM1882.31 210.728C1882.31 214.642 1883.13 217.217 1884.78 218.453C1886.43 219.689 1890.65 220.307 1897.45 220.307C1904.25 220.307 1909.91 222.058 1914.44 225.56C1918.97 229.062 1921.24 236.272 1921.24 247.19C1921.24 258.108 1918.77 265.421 1913.82 269.129C1909.09 272.631 1902.39 274.382 1893.74 274.382C1850.07 274.382 1828.23 252.752 1828.23 209.492L1827.92 62.0989C1827.92 57.3609 1828.03 53.8589 1828.23 51.5929C1828.64 49.1209 1829.67 46.3399 1831.32 43.2499C1834.41 37.8939 1842.45 35.2159 1855.42 35.2159C1867.99 35.2159 1875.82 38.0999 1878.91 43.8679C1881.17 48.3999 1882.31 54.5799 1882.31 62.4079V210.728Z" fill="black"/>
<path d="M2095.2 174.266C2095.2 186.832 2092.01 196.205 2085.62 202.385C2079.44 208.359 2072.54 211.346 2064.92 211.346H1991.69C1991.69 217.114 1995.08 221.955 2001.88 225.869C2008.68 229.783 2015.48 231.74 2022.28 231.74C2034.22 231.74 2043.6 230.504 2050.4 228.032L2053.79 226.796C2058.74 224.53 2062.86 223.397 2066.15 223.397C2072.75 223.397 2078.41 228.032 2083.15 237.302C2085.83 242.864 2087.17 247.602 2087.17 251.516C2087.17 269.85 2065.23 279.017 2021.35 279.017C2006.11 279.017 1992.51 276.442 1980.56 271.292C1968.82 265.936 1959.65 258.932 1953.06 250.28C1940.08 233.594 1933.59 214.951 1933.59 194.351C1933.59 168.395 1941.94 147.692 1958.62 132.242C1975.51 116.586 1996.53 108.758 2021.66 108.758C2050.29 108.758 2071.3 118.852 2084.69 139.04C2091.7 149.752 2095.2 161.494 2095.2 174.266ZM2030 183.227C2037.83 183.227 2041.74 179.931 2041.74 173.339C2041.74 168.601 2039.89 164.79 2036.18 161.906C2032.68 159.022 2027.53 157.58 2020.73 157.58C2014.14 157.58 2007.55 160.361 2000.96 165.923C1994.36 171.279 1991.07 177.047 1991.07 183.227H2030Z" fill="black"/>
<path d="M2166.34 193.733C2166.34 202.385 2169.23 209.183 2175 214.127C2180.76 218.865 2186.84 221.234 2193.23 221.234C2199.82 221.234 2205.9 219.38 2211.46 215.672C2217.23 211.758 2221.86 209.801 2225.36 209.801C2231.54 209.801 2239.06 215.26 2247.92 226.178C2252.66 232.152 2255.03 237.508 2255.03 242.246C2255.03 250.074 2249.36 257.387 2238.03 264.185C2226.29 272.425 2211.87 276.545 2194.77 276.545C2175.61 276.545 2157.18 269.644 2139.46 255.842C2131.02 249.25 2124.12 240.495 2118.76 229.577C2113.4 218.453 2110.72 206.299 2110.72 193.115C2110.72 179.725 2113.4 167.674 2118.76 156.962C2124.12 146.044 2131.02 137.289 2139.46 130.697C2156.56 117.101 2174.79 110.303 2194.16 110.303C2201.98 110.303 2209.6 111.436 2217.02 113.702C2224.44 115.762 2229.9 117.822 2233.4 119.882L2238.34 122.972C2242.05 125.444 2244.93 127.401 2246.99 128.843C2252.35 132.963 2255.03 137.701 2255.03 143.057C2255.03 148.207 2252.87 154.078 2248.54 160.67C2241.12 172 2234.02 177.665 2227.22 177.665C2223.3 177.665 2217.74 175.399 2210.53 170.867C2206.82 167.365 2201.47 165.614 2194.46 165.614C2187.67 165.614 2181.28 168.086 2175.31 173.03C2169.33 177.974 2166.34 184.875 2166.34 193.733Z" fill="black"/>
<path d="M2366.53 166.85L2346.44 165.614V208.256C2346.44 213.818 2347.27 217.835 2348.91 220.307C2350.77 222.779 2354.06 224.015 2358.8 224.015C2363.75 224.015 2367.45 224.221 2369.93 224.633C2372.6 224.839 2375.38 225.766 2378.27 227.414C2383.01 230.092 2385.38 236.993 2385.38 248.117C2385.38 261.095 2382.49 269.026 2376.72 271.91C2373.63 273.352 2370.85 274.279 2368.38 274.691C2366.11 274.897 2362.72 275 2358.18 275C2336.76 275 2320.49 270.159 2309.36 260.477C2298.24 250.795 2292.68 234.418 2292.68 211.346V165.614C2288.76 166.232 2284.54 166.541 2280.01 166.541C2275.47 166.541 2271.66 164.79 2268.57 161.288C2265.69 157.786 2264.25 151.812 2264.25 143.366C2264.25 134.92 2264.76 128.843 2265.79 125.135C2266.82 121.221 2268.26 118.44 2270.12 116.792C2273.41 114.114 2277.53 112.775 2282.48 112.775L2292.68 114.011V82.1839C2292.68 77.4459 2292.78 73.9439 2292.98 71.6779C2293.4 69.4119 2294.43 66.9399 2296.07 64.2619C2298.75 59.1119 2306.68 56.5369 2319.87 56.5369C2333.88 56.5369 2342.22 60.3479 2344.9 67.9699C2345.93 71.2659 2346.44 76.5189 2346.44 83.7289V114.011C2355.51 113.187 2362.3 112.775 2366.84 112.775C2371.57 112.775 2375.08 112.981 2377.34 113.393C2379.81 113.599 2382.59 114.526 2385.68 116.174C2391.04 118.852 2393.72 126.783 2393.72 139.967C2393.72 152.945 2390.94 160.876 2385.38 163.76C2382.29 165.202 2379.5 166.129 2377.03 166.541C2374.77 166.747 2371.26 166.85 2366.53 166.85Z" fill="black"/>
<path d="M2406.15 193.733C2406.15 169.013 2414.8 148.619 2432.1 132.551C2449.41 116.483 2469.18 108.449 2491.43 108.449C2513.68 108.449 2533.35 116.483 2550.45 132.551C2567.55 148.413 2576.1 168.704 2576.1 193.424C2576.1 210.522 2571.67 225.766 2562.81 239.156C2553.95 252.34 2543.14 262.125 2530.36 268.511C2517.8 274.691 2504.72 277.781 2491.12 277.781C2477.52 277.781 2464.34 274.485 2451.57 267.893C2438.8 261.095 2427.98 251.207 2419.12 238.229C2410.47 225.045 2406.15 210.213 2406.15 193.733ZM2470.73 215.981C2477.32 220.925 2484.01 223.397 2490.81 223.397C2497.61 223.397 2504.41 220.822 2511.21 215.672C2518 210.522 2521.4 202.9 2521.4 192.806C2521.4 182.712 2518.21 175.193 2511.82 170.249C2505.44 165.305 2498.54 162.833 2491.12 162.833C2483.7 162.833 2476.8 165.408 2470.42 170.558C2464.03 175.708 2460.84 183.33 2460.84 193.424C2460.84 203.312 2464.13 210.831 2470.73 215.981Z" fill="black"/>
<path d="M2706.68 114.011C2710.6 115.247 2713.79 117.41 2716.26 120.5C2718.94 123.384 2720.28 128.122 2720.28 134.714C2720.28 141.306 2718.32 148.516 2714.41 156.344C2710.49 164.172 2704.83 168.086 2697.41 168.086C2693.7 168.086 2690.1 167.262 2686.6 165.614C2683.3 163.966 2678.87 163.142 2673.31 163.142C2667.75 163.142 2662.5 165.099 2657.55 169.013C2652.81 172.927 2650.44 177.665 2650.44 183.227V248.117C2650.44 252.855 2650.24 256.46 2649.83 258.932C2649.62 261.198 2648.69 263.876 2647.05 266.966C2643.96 272.322 2635.92 275 2622.94 275C2613.06 275 2605.95 273.249 2601.62 269.747C2598.33 266.863 2596.47 262.434 2596.06 256.46C2596.06 254.4 2596.06 251.413 2596.06 247.499V139.04C2596.06 134.302 2596.16 130.8 2596.37 128.534C2596.78 126.062 2597.71 123.384 2599.15 120.5C2602.03 114.938 2610.07 112.157 2623.25 112.157C2635.61 112.157 2643.34 114.526 2646.43 119.264C2648.69 122.56 2649.83 125.959 2649.83 129.461C2650.86 128.019 2652.3 126.268 2654.15 124.208C2656.21 122.148 2660.44 119.367 2666.82 115.865C2673.21 112.363 2678.77 110.612 2683.51 110.612C2688.45 110.612 2692.57 110.921 2695.87 111.539C2699.16 111.951 2702.77 112.775 2706.68 114.011Z" fill="black"/>
<rect x="169.225" y="140.828" width="69" height="16.025" transform="rotate(45.3318 169.225 140.828)" fill="#FB292B" stroke="black" stroke-width="4"/>
<path d="M246 284C254.602 282.912 264 271 264 271L234 258C225.218 258.471 222.28 260.575 221 268C221 268 234.5 285.455 246 284Z" fill="#112935"/>
<path d="M331 284C322.398 282.912 313 271 313 271L343 258C351.782 258.471 354.72 260.575 356 268C356 268 342.5 285.455 331 284Z" fill="#112935"/>
<path d="M377.5 173C377.5 229.01 337.177 273.5 288.5 273.5C239.823 273.5 199.5 229.01 199.5 173C199.5 116.99 239.823 72.5 288.5 72.5C337.177 72.5 377.5 116.99 377.5 173Z" fill="#FFD39E" stroke="black" stroke-width="9"/>
<path d="M373.64 182.375C371.654 206.78 361.564 229.413 345.417 245.68C329.269 261.947 308.275 270.629 286.695 269.964C265.114 269.3 244.565 259.338 229.219 242.1C213.872 224.863 204.878 201.642 204.061 177.151L289 173.5L373.64 182.375Z" fill="#F3E7DB"/>
<path d="M289 166L271.679 133.75H306.321L289 166Z" fill="#112935"/>
<circle cx="320.5" cy="123.5" r="6.5" fill="#112935"/>
<circle cx="256.5" cy="123.5" r="6.5" fill="#112935"/>
<ellipse cx="248" cy="144" rx="8" ry="6" fill="#FE9099"/>
<ellipse cx="329" cy="144" rx="8" ry="6" fill="#FE9099"/>
<path d="M373.5 179C314.5 180.5 296.167 178.833 293.5 179L203.5 174.5" stroke="black" stroke-width="9"/>
<path d="M273.124 181.997C264.562 215.207 253.291 226.557 225.41 238.068C210.788 216.418 205.35 203.624 202 179.293L273.124 181.997Z" fill="#FFD39E" stroke="black" stroke-width="2"/>
<path d="M304.829 182.98C298.57 193.461 339.907 250.01 349.317 241.643C358.727 233.275 369.95 209.654 375.993 184.276L304.829 182.98Z" fill="#FFD39E" stroke="black" stroke-width="2"/>
<rect x="147" y="139.588" width="23" height="81" transform="rotate(-16.6452 147 139.588)" fill="black"/>
<path d="M185 93.5C185 122.844 165.374 145 143 145C120.626 145 101 122.844 101 93.5C101 64.1561 120.626 42 143 42C165.374 42 185 64.1561 185 93.5Z" stroke="black" stroke-width="10"/>
<line x1="15" y1="282" x2="556" y2="282" stroke="black" stroke-width="4" stroke-linecap="round"/>
<path d="M314.769 71.2496L312.55 75.0453L316.894 75.7273L346.494 80.3748L352.104 81.2557L349.669 76.1251L335.191 45.6108L332.757 40.4802L329.891 45.3828L314.769 71.2496Z" fill="#FD292B" stroke="black" stroke-width="6"/>
<path d="M365.976 103.724L363.492 107.352L361.019 103.716L344.169 78.9411L340.975 74.2454L346.654 74.254L380.429 74.3047L386.108 74.3132L382.9 78.9992L365.976 103.724Z" fill="#FA282B" stroke="black" stroke-width="6"/>
</svg>
